<?xml version="1.0" encoding="UTF-8" standalone="no"?>
<!-- Generator: Adobe Illustrator 15.0.2, SVG Export Plug-In . SVG Version: 6.00 Build 0)  -->

<svg
   xmlns:dc="http://purl.org/dc/elements/1.1/"
   xmlns:cc="http://creativecommons.org/ns#"
   xmlns:rdf="http://www.w3.org/1999/02/22-rdf-syntax-ns#"
   xmlns:svg="http://www.w3.org/2000/svg"
   xmlns="http://www.w3.org/2000/svg"
   xmlns:sodipodi="http://sodipodi.sourceforge.net/DTD/sodipodi-0.dtd"
   xmlns:inkscape="http://www.inkscape.org/namespaces/inkscape"
   version="1.1"
   id="Layer_1"
   x="0px"
   y="0px"
   width="130px"
   height="103.113px"
   viewBox="0 0 130 103.113"
   enable-background="new 0 0 130 103.113"
   xml:space="preserve"
   sodipodi:docname="visitante img.svg"
   inkscape:version="0.92.2 (5c3e80d, 2017-08-06)"><metadata
     id="metadata9"><rdf:RDF><cc:Work
         rdf:about=""><dc:format>image/svg+xml</dc:format><dc:type
           rdf:resource="http://purl.org/dc/dcmitype/StillImage" /><dc:title></dc:title></cc:Work></rdf:RDF></metadata><defs
     id="defs7" /><sodipodi:namedview
     pagecolor="#ffffff"
     bordercolor="#666666"
     borderopacity="1"
     objecttolerance="10"
     gridtolerance="10"
     guidetolerance="10"
     inkscape:pageopacity="0"
     inkscape:pageshadow="2"
     inkscape:window-width="640"
     inkscape:window-height="480"
     id="namedview5"
     showgrid="false"
     inkscape:zoom="2.2887512"
     inkscape:cx="65"
     inkscape:cy="51.556499"
     inkscape:window-x="0"
     inkscape:window-y="0"
     inkscape:window-maximized="0"
     inkscape:current-layer="Layer_1" /><path
     fill="#F08B1D"
     d="M111.524,35.614c-3.578,0-6.482,2.901-6.482,6.462c0,3.562,2.904,6.464,6.482,6.464  c3.559,0,6.461-2.902,6.461-6.464C117.985,38.515,115.083,35.614,111.524,35.614z M18.587,35.614c-3.575,0-6.478,2.901-6.478,6.462  c0,3.562,2.902,6.464,6.478,6.464c3.567,0,6.469-2.902,6.469-6.464C25.056,38.515,22.154,35.614,18.587,35.614z M92.288,23.856  c-5.307,0-9.609,4.311-9.609,9.626c0,5.292,4.303,9.605,9.609,9.605c5.311,0,9.629-4.313,9.629-9.605  C101.917,28.174,97.585,23.856,92.288,23.856z M122.138,82.356h-10.959V62.182c0-3.465-1.025-6.684-2.656-9.488  c0.965-0.281,1.947-0.48,3.002-0.48c5.842,0,10.613,4.771,10.613,10.63V82.356z M37.81,23.856c-5.315,0-9.625,4.311-9.625,9.626  c0,5.292,4.311,9.605,9.625,9.605c5.295,0,9.606-4.313,9.606-9.605C47.416,28.174,43.105,23.856,37.81,23.856z M18.587,52.213  c1.044,0,2.021,0.199,2.991,0.48c-1.658,2.805-2.655,6.023-2.655,9.488v20.175H7.956V62.843  C7.956,56.984,12.735,52.213,18.587,52.213z M65.032,4.63c-7.831,0-14.219,6.38-14.219,14.22c0,7.846,6.38,14.233,14.219,14.233  c7.854,0,14.236-6.388,14.236-14.233C79.272,11.01,72.886,4.63,65.032,4.63z M107.655,89.864H90.86V59.171  c0-4.224-1.107-8.15-2.916-11.67c1.375-0.404,2.818-0.693,4.332-0.693c8.471,0,15.379,6.889,15.379,15.374V89.864z M39.207,59.171  v30.693H22.443V62.182c0-8.479,6.891-15.374,15.374-15.374c1.514,0,2.944,0.289,4.318,0.693  C40.335,51.021,39.207,54.947,39.207,59.171z M42.727,98.748h44.614V59.171c0-12.301-10.014-22.306-22.309-22.306  c-12.305,0-22.305,10.004-22.305,22.306V98.748z"
     id="path2" /></svg>